<?xml version="1.0" encoding="UTF-8" standalone="no"?>
<!-- Generator: Adobe Illustrator 15.1.0, SVG Export Plug-In . SVG Version: 6.00 Build 0)  -->

<svg
   xmlns:dc="http://purl.org/dc/elements/1.1/"
   xmlns:cc="http://creativecommons.org/ns#"
   xmlns:rdf="http://www.w3.org/1999/02/22-rdf-syntax-ns#"
   xmlns:svg="http://www.w3.org/2000/svg"
   xmlns="http://www.w3.org/2000/svg"
   xmlns:sodipodi="http://sodipodi.sourceforge.net/DTD/sodipodi-0.dtd"
   xmlns:inkscape="http://www.inkscape.org/namespaces/inkscape"
   version="1.1"
   id="svg5446"
   sodipodi:docname="Reconstruct 9.svg"
   inkscape:version="0.48.4 r9939"
   sodipodi:version="0.32"
   x="0"
   y="0"
   width="160"
   height="160"
   viewBox="0 0 160 160"
   enable-background="new 0 0 160 160"
   xml:space="preserve"
   inkscape:export-filename="D:\omg\src\default\Vicon\LifeSciences\Nexus\AspenInstaller\Configurations\Toolbars\Icons\Reconstruct 1.png"
   inkscape:export-xdpi="135"
   inkscape:export-ydpi="135"><metadata
   id="metadata131"><rdf:RDF><cc:Work
       rdf:about=""><dc:format>image/svg+xml</dc:format><dc:type
         rdf:resource="http://purl.org/dc/dcmitype/StillImage" /><dc:title></dc:title></cc:Work></rdf:RDF></metadata><defs
   id="defs129" />
<radialGradient
   id="SVGID_1_"
   cx="221.1094"
   cy="-242.7158"
   r="2.5504"
   gradientTransform="matrix(1,0,0,-1.0802,-211.2344,-247.7865)"
   gradientUnits="userSpaceOnUse">
	<stop
   offset="0"
   style="stop-color:#C2C2C2"
   id="stop4" />
	<stop
   offset="0.2976"
   style="stop-color:#C5C5C5"
   id="stop6" />
	<stop
   offset="0.5322"
   style="stop-color:#CFCFCF"
   id="stop8" />
	<stop
   offset="0.7453"
   style="stop-color:#E0E0E0"
   id="stop10" />
	<stop
   offset="0.9446"
   style="stop-color:#F7F7F7"
   id="stop12" />
	<stop
   offset="1"
   style="stop-color:#FFFFFF"
   id="stop14" />
</radialGradient>
<ellipse
   cx="9.875"
   cy="14.396"
   rx="3.5840001"
   ry="0.43599999"
   id="ellipse16"
   style="fill:url(#SVGID_1_)"
   sodipodi:cx="9.875"
   sodipodi:cy="14.396"
   sodipodi:rx="3.5840001"
   sodipodi:ry="0.43599999"
   transform="matrix(10.353864,0,0,10.411295,-0.6123195,-3.413122)" />
<radialGradient
   id="SVGID_2_"
   cx="214.2471"
   cy="-242.7314"
   r="2.0724"
   gradientTransform="matrix(1,0,0,-0.7535,-211.2344,-168.2731)"
   gradientUnits="userSpaceOnUse">
	<stop
   offset="0"
   style="stop-color:#C2C2C2"
   id="stop19" />
	<stop
   offset="0.2976"
   style="stop-color:#C5C5C5"
   id="stop21" />
	<stop
   offset="0.5322"
   style="stop-color:#CFCFCF"
   id="stop23" />
	<stop
   offset="0.7453"
   style="stop-color:#E0E0E0"
   id="stop25" />
	<stop
   offset="0.9446"
   style="stop-color:#F7F7F7"
   id="stop27" />
	<stop
   offset="1"
   style="stop-color:#FFFFFF"
   id="stop29" />
</radialGradient>
<ellipse
   cx="3.0120001"
   cy="14.624"
   rx="2.9119999"
   ry="0.24699999"
   id="ellipse31"
   style="fill:url(#SVGID_2_)"
   sodipodi:cx="3.0120001"
   sodipodi:cy="14.624"
   sodipodi:rx="2.9119999"
   sodipodi:ry="0.24699999"
   transform="matrix(10.353864,0,0,10.411295,-0.6123195,-3.413122)" />
<radialGradient
   id="SVGID_3_"
   cx="216.3184"
   cy="-237.9624"
   r="2.5504"
   gradientTransform="matrix(1,0,0,-0.7535,-211.2344,-168.2731)"
   gradientUnits="userSpaceOnUse">
	<stop
   offset="0"
   style="stop-color:#C2C2C2"
   id="stop34" />
	<stop
   offset="0.2976"
   style="stop-color:#C5C5C5"
   id="stop36" />
	<stop
   offset="0.5322"
   style="stop-color:#CFCFCF"
   id="stop38" />
	<stop
   offset="0.7453"
   style="stop-color:#E0E0E0"
   id="stop40" />
	<stop
   offset="0.9446"
   style="stop-color:#F7F7F7"
   id="stop42" />
	<stop
   offset="1"
   style="stop-color:#FFFFFF"
   id="stop44" />
</radialGradient>
<ellipse
   cx="5.0830002"
   cy="11.03"
   rx="3.5840001"
   ry="0.30399999"
   id="ellipse46"
   style="fill:url(#SVGID_3_)"
   sodipodi:cx="5.0830002"
   sodipodi:cy="11.03"
   sodipodi:rx="3.5840001"
   sodipodi:ry="0.30399999"
   transform="matrix(10.353864,0,0,10.411295,-0.6123195,-3.413122)" />
<g
   id="g48"
   transform="matrix(10.353864,0,0,10.411295,-0.6123195,-3.413122)">
	<ellipse
   cx="4.1230001"
   cy="4.2249999"
   rx="2.9630001"
   ry="2.9749999"
   id="ellipse50"
   d="m 7.0860002,4.2249999 c 0,1.6430471 -1.3265803,2.9749999 -2.9630001,2.9749999 -1.6364197,0 -2.963,-1.3319528 -2.963,-2.9749999 0,-1.6430471 1.3265803,-2.9749999 2.963,-2.9749999 1.6364198,0 2.9630001,1.3319528 2.9630001,2.9749999 z"
   sodipodi:cx="4.1230001"
   sodipodi:cy="4.2249999"
   sodipodi:rx="2.9630001"
   sodipodi:ry="2.9749999"
   style="fill:#616363" />
	
		<linearGradient
   id="SVGID_4_"
   gradientUnits="userSpaceOnUse"
   x1="-1308.6099"
   y1="-232.16409"
   x2="-1308.5609"
   y2="-232.16409"
   gradientTransform="matrix(0,-52.0039,52.0039,0,12077.546,-68048.406)">
		<stop
   offset="0.0135"
   style="stop-color:#FFFFFF;stop-opacity:0"
   id="stop53" />
		<stop
   offset="1"
   style="stop-color:#FFFFFF"
   id="stop55" />
	</linearGradient>
	<path
   d="M 6.096,3.584 C 6.096,4.519 5.251,4.426 4.163,4.425 3.075,4.425 2.151,4.518 2.151,3.584 2.148,2.65 3.035,1.894 4.124,1.894 5.213,1.896 6.096,2.65 6.096,3.584 z"
   id="path57"
   style="fill:url(#SVGID_4_)"
   inkscape:connector-curvature="0" />
	
		<linearGradient
   id="SVGID_5_"
   gradientUnits="userSpaceOnUse"
   x1="-1270.8022"
   y1="-378.46579"
   x2="-1270.7469"
   y2="-378.46579"
   gradientTransform="matrix(0,19.3867,-19.3867,0,-7333.0752,24642.373)">
		<stop
   offset="0"
   style="stop-color:#FFFFFF;stop-opacity:0"
   id="stop60" />
		<stop
   offset="0.906"
   style="stop-color:#FFFFFF;stop-opacity:0.906"
   id="stop62" />
		<stop
   offset="1"
   style="stop-color:#FFFFFF"
   id="stop64" />
	</linearGradient>
	<path
   d="m 2.586,6.161 c 0,-0.346 0.69,-0.425 1.538,-0.425 0.849,0 1.537,0.081 1.537,0.425 C 5.664,6.51 4.973,6.789 4.124,6.793 3.277,6.792 2.586,6.509 2.586,6.161 z"
   id="path66"
   style="fill:url(#SVGID_5_)"
   inkscape:connector-curvature="0" />
</g>
<g
   id="g68"
   transform="matrix(10.353864,0,0,10.411295,-0.6123195,-3.413122)">
	<ellipse
   cx="13.588"
   cy="5.29"
   rx="1.41"
   ry="1.416"
   id="ellipse70"
   d="m 14.998,5.29 c 0,0.7820352 -0.631278,1.416 -1.41,1.416 -0.778721,0 -1.41,-0.6339648 -1.41,-1.416 0,-0.7820352 0.631279,-1.416 1.41,-1.416 0.778722,0 1.41,0.6339648 1.41,1.416 z"
   sodipodi:cx="13.588"
   sodipodi:cy="5.29"
   sodipodi:rx="1.41"
   sodipodi:ry="1.416"
   style="fill:#616363" />
	
		<linearGradient
   id="SVGID_6_"
   gradientUnits="userSpaceOnUse"
   x1="-1308.6289"
   y1="-231.98241"
   x2="-1308.605"
   y2="-231.98241"
   gradientTransform="matrix(0,-52.0039,52.0039,0,12077.546,-68048.406)">
		<stop
   offset="0.0135"
   style="stop-color:#FFFFFF;stop-opacity:0"
   id="stop73" />
		<stop
   offset="1"
   style="stop-color:#FFFFFF"
   id="stop75" />
	</linearGradient>
	<path
   d="m 14.525,4.985 c 0,0.445 -0.402,0.401 -0.92,0.4 -0.521,0 -0.957,0.044 -0.957,-0.4 -0.002,-0.444 0.422,-0.805 0.94,-0.805 0.517,0.001 0.937,0.361 0.937,0.805 z"
   id="path77"
   style="fill:url(#SVGID_6_)"
   inkscape:connector-curvature="0" />
	
		<linearGradient
   id="SVGID_7_"
   gradientUnits="userSpaceOnUse"
   x1="-1270.7866"
   y1="-378.95361"
   x2="-1270.7611"
   y2="-378.95361"
   gradientTransform="matrix(0,19.3867,-19.3867,0,-7333.0752,24642.373)">
		<stop
   offset="0"
   style="stop-color:#FFFFFF;stop-opacity:0"
   id="stop80" />
		<stop
   offset="0.906"
   style="stop-color:#FFFFFF;stop-opacity:0.906"
   id="stop82" />
		<stop
   offset="1"
   style="stop-color:#FFFFFF"
   id="stop84" />
	</linearGradient>
	<path
   d="m 12.855,6.211 c 0,-0.165 0.328,-0.203 0.73,-0.203 0.4,0 0.729,0.038 0.729,0.203 0.002,0.166 -0.328,0.3 -0.729,0.301 -0.401,0 -0.73,-0.135 -0.73,-0.301 z"
   id="path86"
   style="fill:url(#SVGID_7_)"
   inkscape:connector-curvature="0" />
</g>
<g
   id="g88"
   transform="matrix(10.353864,0,0,10.411295,-0.6123195,-3.413122)">
	<ellipse
   cx="9.8479996"
   cy="9.5799999"
   rx="4.6589999"
   ry="4.6760001"
   id="ellipse90"
   d="m 14.506999,9.5799999 c 0,2.5824831 -2.085905,4.6760001 -4.6589994,4.6760001 -2.5730946,0 -4.6589999,-2.093517 -4.6589999,-4.6760001 0,-2.5824835 2.0859053,-4.6760001 4.6589999,-4.6760001 2.5730944,0 4.6589994,2.0935166 4.6589994,4.6760001 z"
   sodipodi:cx="9.8479996"
   sodipodi:cy="9.5799999"
   sodipodi:rx="4.6589999"
   sodipodi:ry="4.6760001"
   style="fill:#616363" />
	
		<linearGradient
   id="SVGID_8_"
   gradientUnits="userSpaceOnUse"
   x1="-1308.7153"
   y1="-232.0542"
   x2="-1308.6387"
   y2="-232.0542"
   gradientTransform="matrix(0,-52.0039,52.0039,0,12077.546,-68048.406)">
		<stop
   offset="0.0135"
   style="stop-color:#FFFFFF;stop-opacity:0"
   id="stop93" />
		<stop
   offset="1"
   style="stop-color:#FFFFFF"
   id="stop95" />
	</linearGradient>
	<path
   d="m 12.949,8.576 c 0,1.469 -1.326,1.322 -3.039,1.322 C 8.2,9.896 6.747,10.045 6.747,8.574 6.742,7.107 8.137,5.914 9.85,5.915 c 1.712,0.002 3.099,1.191 3.099,2.661 z"
   id="path97"
   style="fill:url(#SVGID_8_)"
   inkscape:connector-curvature="0" />
	
		<linearGradient
   id="SVGID_9_"
   gradientUnits="userSpaceOnUse"
   x1="-1270.4844"
   y1="-378.76071"
   x2="-1270.3967"
   y2="-378.76071"
   gradientTransform="matrix(0,19.3867,-19.3867,0,-7333.0752,24642.373)">
		<stop
   offset="0"
   style="stop-color:#FFFFFF;stop-opacity:0"
   id="stop100" />
		<stop
   offset="0.906"
   style="stop-color:#FFFFFF;stop-opacity:0.906"
   id="stop102" />
		<stop
   offset="1"
   style="stop-color:#FFFFFF"
   id="stop104" />
	</linearGradient>
	<path
   d="m 7.431,12.627 c 0,-0.547 1.086,-0.67 2.418,-0.67 1.336,0 2.418,0.123 2.418,0.67 0.002,0.545 -1.082,0.986 -2.418,0.99 -1.331,0 -2.418,-0.443 -2.418,-0.99 z"
   id="path106"
   style="fill:url(#SVGID_9_)"
   inkscape:connector-curvature="0" />
</g>
<sodipodi:namedview
   inkscape:grid-bbox="true"
   inkscape:cy="18.566164"
   inkscape:pageshadow="2"
   inkscape:window-x="-8"
   borderopacity="1.0"
   inkscape:current-layer="svg5446"
   inkscape:window-y="-8"
   inkscape:window-height="698"
   inkscape:pageopacity="0.0"
   inkscape:zoom="0.76373057"
   pagecolor="#ffffff"
   inkscape:window-width="1280"
   showgrid="false"
   inkscape:cx="-149.47303"
   bordercolor="#666666"
   id="base"
   inkscape:document-units="px"
   inkscape:window-maximized="1">
	</sodipodi:namedview>
<g
   id="g109"
   transform="matrix(10.353864,0,0,10.411295,-0.6123195,-3.413122)">
	<ellipse
   cx="3.1789999"
   cy="12.479"
   rx="1.939"
   ry="1.947"
   id="ellipse111"
   d="m 5.1179999,12.479 c 0,1.075299 -0.8681199,1.947 -1.939,1.947 -1.0708801,0 -1.939,-0.871701 -1.939,-1.947 0,-1.075298 0.8681199,-1.947 1.939,-1.947 1.0708801,0 1.939,0.871702 1.939,1.947 z"
   sodipodi:cx="3.1789999"
   sodipodi:cy="12.479"
   sodipodi:rx="1.939"
   sodipodi:ry="1.947"
   style="fill:#616363" />
	
		<linearGradient
   id="SVGID_10_"
   gradientUnits="userSpaceOnUse"
   x1="-1308.7676"
   y1="-232.1826"
   x2="-1308.7351"
   y2="-232.1826"
   gradientTransform="matrix(0,-52.0039,52.0039,0,12077.546,-68048.406)">
		<stop
   offset="0.0135"
   style="stop-color:#FFFFFF;stop-opacity:0"
   id="stop114" />
		<stop
   offset="1"
   style="stop-color:#FFFFFF"
   id="stop116" />
	</linearGradient>
	<path
   d="m 4.468,12.059 c 0,0.612 -0.553,0.552 -1.265,0.55 -0.716,0 -1.316,0.062 -1.316,-0.55 -0.003,-0.61 0.58,-1.107 1.292,-1.107 0.711,0.002 1.289,0.496 1.289,1.107 z"
   id="path118"
   style="fill:url(#SVGID_10_)"
   inkscape:connector-curvature="0" />
	
		<linearGradient
   id="SVGID_11_"
   gradientUnits="userSpaceOnUse"
   x1="-1270.4019"
   y1="-378.41699"
   x2="-1270.3667"
   y2="-378.41699"
   gradientTransform="matrix(0,19.3867,-19.3867,0,-7333.0752,24642.373)">
		<stop
   offset="0"
   style="stop-color:#FFFFFF;stop-opacity:0"
   id="stop121" />
		<stop
   offset="0.906"
   style="stop-color:#FFFFFF;stop-opacity:0.906"
   id="stop123" />
		<stop
   offset="1"
   style="stop-color:#FFFFFF"
   id="stop125" />
	</linearGradient>
	<path
   d="m 2.171,13.745 c 0,-0.228 0.451,-0.279 1.004,-0.279 0.551,0 1.002,0.052 1.002,0.279 0.002,0.229 -0.451,0.412 -1.002,0.413 -0.552,0 -1.004,-0.184 -1.004,-0.413 z"
   id="path127"
   style="fill:url(#SVGID_11_)"
   inkscape:connector-curvature="0" />
</g>



</svg>
